<svg width="419" height="111" viewBox="0 0 419 111" fill="none" xmlns="http://www.w3.org/2000/svg">
<path d="M104.97 106.638L90.497 55.7731M91.0593 56.1015L7.01143 3.53349M138.984 13.051L90.6994 55.7301M139.669 12.9019L104.909 107.208L5.02377 2.7915L139.669 12.9019Z" stroke="#0EA5E9" stroke-width="3.22459"/>
<path d="M157.978 77.3589V32.2146H177.519C181.56 32.2146 185.043 32.881 187.966 34.2138C190.89 35.5037 193.147 37.3739 194.738 39.8246C196.329 42.2753 197.124 45.1989 197.124 48.5955C197.124 51.9491 196.329 54.8512 194.738 57.3019C193.147 59.7096 190.89 61.5584 187.966 62.8482C185.043 64.1381 181.56 64.783 177.519 64.783H163.782L168.425 60.204V77.3589H157.978ZM186.677 77.3589L175.39 60.978H186.548L197.963 77.3589H186.677ZM168.425 61.3649L163.782 56.4635H176.938C180.163 56.4635 182.571 55.7756 184.161 54.3998C185.752 52.981 186.548 51.0462 186.548 48.5955C186.548 46.1018 185.752 44.1671 184.161 42.7912C182.571 41.4154 180.163 40.7275 176.938 40.7275H163.782L168.425 35.7616V61.3649ZM230.231 78.1328C226.749 78.1328 223.503 77.5739 220.493 76.456C217.526 75.2951 214.947 73.6614 212.754 71.5546C210.561 69.4479 208.841 66.9757 207.595 64.1381C206.391 61.3004 205.789 58.1833 205.789 54.7867C205.789 51.3902 206.391 48.2731 207.595 45.4354C208.841 42.5978 210.561 40.1256 212.754 38.0188C214.99 35.9121 217.591 34.2998 220.557 33.182C223.524 32.0211 226.77 31.4407 230.296 31.4407C234.208 31.4407 237.734 32.1286 240.872 33.5044C244.054 34.8372 246.72 36.815 248.869 39.4377L242.162 45.6289C240.614 43.8661 238.895 42.5548 237.003 41.6949C235.111 40.792 233.047 40.3406 230.812 40.3406C228.705 40.3406 226.77 40.6845 225.007 41.3724C223.245 42.0603 221.718 43.0492 220.428 44.339C219.139 45.6289 218.128 47.1552 217.397 48.918C216.709 50.6808 216.365 52.637 216.365 54.7867C216.365 56.9365 216.709 58.8927 217.397 60.6555C218.128 62.4183 219.139 63.9446 220.428 65.2344C221.718 66.5243 223.245 67.5131 225.007 68.201C226.77 68.889 228.705 69.2329 230.812 69.2329C233.047 69.2329 235.111 68.803 237.003 67.9431C238.895 67.0402 240.614 65.6859 242.162 63.8801L248.869 70.0713C246.72 72.694 244.054 74.6932 240.872 76.069C237.734 77.4449 234.187 78.1328 230.231 78.1328ZM268.759 50.4013H290.492V58.5273H268.759V50.4013ZM269.532 68.9749H294.104V77.3589H259.149V32.2146H293.265V40.5985H269.532V68.9749ZM318.346 77.8748C315.122 77.8748 312.327 77.1439 309.962 75.6821C307.598 74.1773 305.749 72.1565 304.416 69.6199C303.126 67.0832 302.481 64.2885 302.481 61.2359C302.481 58.1403 303.126 55.3457 304.416 52.852C305.749 50.3153 307.598 48.316 309.962 46.8542C312.327 45.3494 315.122 44.597 318.346 44.597C322.173 44.597 325.419 45.5859 328.085 47.5636C330.793 49.5414 332.62 52.0996 333.566 55.2382H328.342C327.612 53.3894 326.429 51.8846 324.795 50.7237C323.205 49.5629 321.27 48.9825 318.991 48.9825C316.626 48.9825 314.563 49.5414 312.8 50.6593C311.037 51.7771 309.683 53.2604 308.737 55.1092C307.791 56.958 307.318 59.0002 307.318 61.2359C307.318 63.4286 307.791 65.4709 308.737 67.3626C309.683 69.2114 311.037 70.6947 312.8 71.8126C314.563 72.9304 316.626 73.4894 318.991 73.4894C321.27 73.4894 323.205 72.9089 324.795 71.7481C326.429 70.5872 327.612 69.0824 328.342 67.2337H333.566C332.62 70.3723 330.793 72.9304 328.085 74.9082C325.419 76.8859 322.173 77.8748 318.346 77.8748ZM356.393 77.8748C353.254 77.8748 350.503 77.1439 348.138 75.6821C345.816 74.1773 344.01 72.1565 342.721 69.6199C341.431 67.0832 340.786 64.2885 340.786 61.2359C340.786 58.1403 341.431 55.3457 342.721 52.852C344.01 50.3153 345.816 48.316 348.138 46.8542C350.503 45.3494 353.254 44.597 356.393 44.597C359.059 44.597 361.337 45.113 363.229 46.1448C365.164 47.1767 366.733 48.574 367.937 50.3368V45.113H372.774V77.3589H367.937V72.1995C366.733 73.9193 365.164 75.2951 363.229 76.327C361.337 77.3589 359.059 77.8748 356.393 77.8748ZM357.038 73.4894C359.446 73.4894 361.466 72.9304 363.1 71.8126C364.777 70.6947 366.045 69.2114 366.905 67.3626C367.765 65.4709 368.195 63.4286 368.195 61.2359C368.195 59.0002 367.765 56.958 366.905 55.1092C366.045 53.2604 364.777 51.7771 363.1 50.6593C361.466 49.5414 359.446 48.9825 357.038 48.9825C354.673 48.9825 352.631 49.5414 350.911 50.6593C349.191 51.7771 347.88 53.2604 346.977 55.1092C346.074 56.958 345.623 59.0002 345.623 61.2359C345.623 63.4286 346.074 65.4709 346.977 67.3626C347.88 69.2114 349.191 70.6947 350.911 71.8126C352.631 72.9304 354.673 73.4894 357.038 73.4894ZM397.973 77.8748C394.834 77.8748 392.082 77.1439 389.718 75.6821C387.396 74.1773 385.59 72.1565 384.3 69.6199C383.01 67.0832 382.365 64.2885 382.365 61.2359C382.365 58.1403 383.01 55.3457 384.3 52.852C385.59 50.3153 387.396 48.316 389.718 46.8542C392.082 45.3494 394.834 44.597 397.973 44.597C400.638 44.597 402.917 45.113 404.809 46.1448C406.743 47.1767 408.313 48.574 409.517 50.3368V32.2146H414.353V77.3589H409.517V72.1995C408.313 73.9193 406.743 75.2951 404.809 76.327C402.917 77.3589 400.638 77.8748 397.973 77.8748ZM398.617 73.4894C401.025 73.4894 403.046 72.9304 404.68 71.8126C406.356 70.6947 407.625 69.2114 408.485 67.3626C409.345 65.4709 409.775 63.4286 409.775 61.2359C409.775 59.0002 409.345 56.958 408.485 55.1092C407.625 53.2604 406.356 51.7771 404.68 50.6593C403.046 49.5414 401.025 48.9825 398.617 48.9825C396.253 48.9825 394.211 49.5414 392.491 50.6593C390.771 51.7771 389.46 53.2604 388.557 55.1092C387.654 56.958 387.202 59.0002 387.202 61.2359C387.202 63.4286 387.654 65.4709 388.557 67.3626C389.46 69.2114 390.771 70.6947 392.491 71.8126C394.211 72.9304 396.253 73.4894 398.617 73.4894Z" fill="#475569"/>
</svg>
